<?xml version="1.0" standalone="no"?><!DOCTYPE svg PUBLIC "-//W3C//DTD SVG 1.1//EN" "http://www.w3.org/Graphics/SVG/1.1/DTD/svg11.dtd"><svg t="1574990201661" class="icon" viewBox="0 0 1026 1024" version="1.1" xmlns="http://www.w3.org/2000/svg" p-id="1916" xmlns:xlink="http://www.w3.org/1999/xlink" width="200.390625" height="200"><defs><style type="text/css"></style></defs><path d="M1013.809658 937.849364 735.165069 686.271696c62.268031-72.69603 99.939396-166.953843 99.939396-270.033991C835.104466 186.362978 648.159214 0 417.561055 0 186.945252 0 0 186.362978 0 416.237705c0 229.874728 186.945252 416.237705 417.561055 416.237705 89.687845 0 172.72365-28.302047 240.779132-76.277897 1.58802 2.487898 3.405421 4.869928 5.681583 6.951999l278.715167 251.630602c14.203957 13.039409 36.33037 12.139531 49.422714-2.011492l23.679144-25.620057C1028.931138 972.944608 1028.013615 950.888773 1013.809658 937.849364zM35.483426 416.237705c0-209.971543 171.4003-380.789568 382.095274-380.789568 210.659685 0 382.059984 170.83567 382.059984 380.789568 0 209.971543-171.4003 380.789568-382.059984 380.789568C206.866081 797.027273 35.483426 626.209248 35.483426 416.237705z" p-id="1917"></path></svg>